# xmcd
#
# Track frame offsets:
#	182
#	14370
#	30265
#	40092
#	56320
#	65030
#	76252
#	86677
#	94670
#	113810
#	130875
#	148995
#	162867
#	177665
#
# Disc length: 2531 seconds
#
# Revision: 3
# Processed by: cddbd v1.5.2PL0 Copyright (c) Steve Scherf et al.
# Submitted via: audiograbber 1.83.01
#
DISCID=b509e10e
DTITLE=Various Artist - Live At Gilley's - Volume 2
DYEAR=1998
DGENRE=Country
TTITLE0=Freddy Fender - Before The Next Teardrop Falls
TTITLE1=Oak Ridge Boys - Love Song
TTITLE2=Faron Young - Hello Walls
TTITLE3=Mickey Gilley - Stand By Me
TTITLE4=Johnny Lee - Pickin' Up Strangers
TTITLE5=Lacy J Dalton - Hard Times
TTITLE6=Willie Nelson - On The Road Again
TTITLE7=Faron Young - Live Fast, Love Hard, Die Young
TTITLE8=Carl Perkins - Blue Suede Shoes
TTITLE9=Razzy Bailey - I Keep Coming Back
TTITLE10=Rita Coolidge - One Fine Day
TTITLE11=Moe Bandy - Bandy The Rodeo Clown
TTITLE12=Jerry Lee Lewis - Whole Lotta Shakin' Goin' On
TTITLE13=Oak Ridge Boys - American Made
EXTD=
EXTT0=
EXTT1=
EXTT2=
EXTT3=
EXTT4=
EXTT5=
EXTT6=
EXTT7=
EXTT8=
EXTT9=
EXTT10=
EXTT11=
EXTT12=
EXTT13=
PLAYORDER=
